<svg xmlns="http://www.w3.org/2000/svg" viewBox="0 0 512 512"><path d="M252.07 66a7.49 7.49 0 0 0 3.85-5.51 7.85 7.85 0 0 0 .08-1.08 7.59 7.59 0 0 0 .08 1.07 7.5 7.5 0 0 0 3.85 5.52l185 100a7.48 7.48 0 0 0 3.57.9 7.49 7.49 0 0 0-3.57.91l-185 100a7.49 7.49 0 0 0-3.85 5.51 8 8 0 0 0-.08 1.08 7.85 7.85 0 0 0-.08-1.08 7.49 7.49 0 0 0-3.85-5.51l-185-100a7.66 7.66 0 0 0-3.11-.9 7.66 7.66 0 0 0 3.11-.9Z" transform="translate(-4.56)" style="fill:#c48d69"/><path d="M507.36 106.41a7.48 7.48 0 0 1-2.1 6.37l-51.44 51.94a7.5 7.5 0 0 1-8.89 1.32l-185-100a7.5 7.5 0 0 1-3.85-5.51 7.59 7.59 0 0 1-.08-1.07 7.46 7.46 0 0 1 2.2-5.3L310.14 2.2A7.49 7.49 0 0 1 319 .91l184.5 100a7.49 7.49 0 0 1 3.86 5.5Z" transform="translate(-4.56)" style="fill:#d39c72"/><path d="m505.26 221.1-51.44-51.94a7.47 7.47 0 0 0-8.89-1.31l-19.53 10.56a7.47 7.47 0 0 1 8.89 1.31l51.44 51.94a7.5 7.5 0 0 1-1.73 11.88L503.51 233a7.5 7.5 0 0 0 1.75-11.88ZM256 59.44a7.85 7.85 0 0 1-.08 1.08 7.49 7.49 0 0 1-3.85 5.51l-185 100A7.66 7.66 0 0 1 64 167h-.64a7.46 7.46 0 0 1-5.14-2.21l-51.48-52a7.49 7.49 0 0 1 1.75-11.87L193 .92a7.5 7.5 0 0 1 8.87 1.28l51.94 52a7.53 7.53 0 0 1 2.19 5.24Z" transform="translate(-4.56)" style="fill:#e2ae83"/><path d="m325.15 72.3.75 153.58c.06 2.66-1.72 5.49-5.35 7.82l-52.66 1.54c-7.27 4.46-43.94 5.45-51.19 1.32l-36 .49c-3.73-2.16-6.87.06-6.94-2.8l-1.22-158.54c.07 2.87 2 5.49 5.7 7.65l58.43 31.85c7.46 4.13 19.33 3.87 26.8-.6l56.33-34.42c3.63-2.33 5.41-5.19 5.35-7.89Z" transform="translate(-4.56)" style="fill:#5793fb"/><path d="m425.65 126.9.75 153.58c.05 2.65-1.72 5.48-5.35 7.81l-52.66 1.54c-7.27 4.46-43.94 5.46-51.19 1.33l-36 .49c-3.74-2.16-6.88.06-6.94-2.81L273 130.31c.06 2.87 2 5.48 5.7 7.65l58.43 31.85c7.46 4.13 19.32 3.87 26.8-.6l56.33-34.42c3.67-2.33 5.45-5.24 5.39-7.89Z" transform="translate(-4.56)" style="fill:#febb61"/><path d="m228 127.9.75 153.58c.06 2.65-1.72 5.48-5.35 7.81l-52.66 1.54c-7.27 4.46-43.94 5.46-51.19 1.33l-36 .49c-3.74-2.16-6.87.06-6.94-2.81l-1.18-158.53c.06 2.87 2 5.48 5.7 7.65l58.43 31.85c7.46 4.13 19.32 3.87 26.8-.6l56.33-34.42c3.63-2.33 5.41-5.24 5.31-7.89Z" transform="translate(-4.56)" style="fill:#ed5d71"/><path d="M328.45 181.39 329.2 335c.06 2.65-1.72 5.48-5.35 7.81l-52.66 1.54c-7.27 4.46-43.93 5.46-51.19 1.33l-36 .49c-3.73-2.16-6.87.06-6.94-2.81l-1.22-158.56c.07 2.87 2 5.48 5.7 7.65L240 224.3c7.46 4.13 19.33 3.87 26.8-.6l56.33-34.42c3.61-2.28 5.38-5.28 5.32-7.89Z" transform="translate(-4.56)" style="fill:#5faf5f"/><path d="M319 333a7.44 7.44 0 0 1-3.57.89 7.52 7.52 0 0 1-5.3-2.18l-51.93-51.96a7.52 7.52 0 0 1-2.2-5.31 7.52 7.52 0 0 1-2.2 5.31l-51.94 51.94a7.52 7.52 0 0 1-5.3 2.18A7.44 7.44 0 0 1 193 333L63.5 262.79v141.69a6.51 6.51 0 0 0 0 .77v.32c0 .1 0 .26.07.39s.07.33.11.48l.06.23c0 .16.11.31.17.47a1.72 1.72 0 0 0 .07.21c.06.14.13.28.2.42s.07.16.12.25a3.37 3.37 0 0 0 .19.32 3.21 3.21 0 0 0 .19.31 2.07 2.07 0 0 0 .17.24c.09.12.17.24.26.35s.11.13.16.19l.33.36.19.17.34.31.37.28c.07.05.13.11.21.16a7.41 7.41 0 0 0 .67.4l185 100a7.53 7.53 0 0 0 7.14 0l185-100c.23-.12.45-.26.67-.4l.21-.16.37-.28.34-.31.19-.17.32-.36a1.46 1.46 0 0 0 .16-.19c.1-.11.18-.23.27-.35s.12-.15.17-.24a3.21 3.21 0 0 0 .19-.31l.19-.32.12-.25c.07-.14.13-.28.19-.42l.08-.21c.06-.16.12-.31.17-.47s0-.15.05-.23a3.37 3.37 0 0 0 .12-.48c0-.13 0-.26.06-.39a3.06 3.06 0 0 0 0-.32V262.79Z" transform="translate(-4.56)" style="fill:#e2ae83"/><path d="M505.26 221.1a7.5 7.5 0 0 1-1.75 11.9L319 333a7.44 7.44 0 0 1-3.57.89 7.52 7.52 0 0 1-5.3-2.18l-51.93-51.96a7.52 7.52 0 0 1-2.2-5.31 7.85 7.85 0 0 1 .08-1.08 7.49 7.49 0 0 1 3.85-5.51l185-100a7.47 7.47 0 0 1 8.89 1.31Z" transform="translate(-4.56)" style="fill:#f2c397"/><path d="M255.92 273.36a7.82 7.82 0 0 1 .08 1.07 7.52 7.52 0 0 1-2.2 5.32l-51.94 51.93A7.54 7.54 0 0 1 193 333L8.49 233a7.51 7.51 0 0 1-1.75-11.89l51.44-51.93a7.51 7.51 0 0 1 5.14-2.22H64a7.82 7.82 0 0 1 3.11.9l185 100a7.52 7.52 0 0 1 3.81 5.5Z" transform="translate(-4.56)" style="fill:#ffd2a6"/><path d="M64 167h-.64a3.42 3.42 0 0 1 .64 0Z" transform="translate(-4.56)" style="fill:#e2ae83"/><path d="M446.33 264c-.1.18-.2.25-.3.16l-27.54 14.92v142.74c0 .1 0 .27-.06.39s-.08.33-.12.49 0 .14-.06.22a4.34 4.34 0 0 1-.16.47l-.08.21c-.06.14-.12.28-.19.42l-.12.25-.19.32a3.21 3.21 0 0 1-.19.31l-.18.25-.26.35-.16.18-.32.36-.19.17c-.11.11-.23.21-.35.31s-.24.19-.36.28l-.21.16-.15.09 29.48-15.94a7.41 7.41 0 0 0 .67-.4l.21-.16.37-.28.34-.31c.06-.06.13-.11.19-.18s.22-.23.32-.35l.17-.19c.09-.11.17-.23.26-.35a2.07 2.07 0 0 0 .17-.24 3.21 3.21 0 0 0 .19-.31l.19-.32.12-.26a3 3 0 0 0 .19-.41l.08-.21c.06-.16.12-.31.17-.48s0-.14.05-.22a3.37 3.37 0 0 0 .12-.48c0-.13 0-.26.06-.39a3.06 3.06 0 0 0 0-.32 6.62 6.62 0 0 0 0-.77V262.79Z" transform="translate(-4.56)" style="fill:#d39c72"/><path d="m253.8 279.75-51.94 51.93A7.54 7.54 0 0 1 193 333L63.5 262.79v141.69a6.51 6.51 0 0 0 0 .77v.32c0 .1 0 .26.07.39s.07.33.11.48l.06.23c0 .16.11.31.17.47a1.72 1.72 0 0 0 .07.21c.06.14.13.28.2.42s.07.16.12.25a3.37 3.37 0 0 0 .19.32 3.21 3.21 0 0 0 .19.31 2.07 2.07 0 0 0 .17.24c.09.12.17.24.26.35s.11.13.16.19l.33.36.19.17.34.31.37.28c.07.05.13.11.21.16a7.41 7.41 0 0 0 .67.4l185 100a7.54 7.54 0 0 0 3.57.9V274.43a7.52 7.52 0 0 1-2.15 5.32Z" transform="translate(-4.56)" style="fill:#f2c397"/><g style="isolation:isolate"><path d="M222.46 120.23c7.41 4.06 7.61 11 .3 15.46l-56.47 34.54c-7.29 4.46-19.29 4.77-26.69.67l-58.48-32c-7.41-4.06-7.6-11-.3-15.46l56.48-34.57c7.3-4.47 19.28-4.74 26.69-.68Z" transform="translate(-4.56)" style="fill:#fe91ab"/></g><path d="M420.07 119.23c7.41 4.06 7.6 11 .3 15.46l-56.48 34.54c-7.3 4.46-19.28 4.73-26.69.67l-58.47-32c-7.41-4.06-7.6-11-.3-15.46l56.48-34.53c7.3-4.47 19.28-4.74 26.69-.68Z" transform="translate(-4.56)" style="fill:#ffdd94"/><g style="isolation:isolate"><path d="M322.88 173.72c7.41 4.06 7.6 11 .3 15.46l-56.48 34.54c-7.3 4.46-19.28 4.73-26.69.67l-58.48-32c-7.41-4.06-7.6-11-.3-15.46l56.48-34.53c7.3-4.47 19.28-4.74 26.69-.68Z" transform="translate(-4.56)" style="fill:#96d696"/></g><path d="M319.57 64.63c7.41 4.06 7.61 11 .3 15.47l-56.47 34.53c-7.31 4.47-19.28 4.73-26.69.67l-58.48-32c-7.41-4.06-7.6-11-.3-15.47l56.48-34.53c7.3-4.47 19.28-4.73 26.69-.67Z" transform="translate(-4.56)" style="fill:#7bb1ff"/></svg>